<mxfile host="app.diagrams.net" agent="Mozilla/5.0 (X11; Ubuntu; Linux x86_64; rv:132.0) Gecko/20100101 Firefox/132.0" version="24.8.0">
  <diagram name="Page-1" id="YYvOcuvJlGanwff1w4KF">
    <mxGraphModel dx="974" dy="534" grid="1" gridSize="8" guides="1" tooltips="1" connect="1" arrows="1" fold="1" page="1" pageScale="1" pageWidth="1100" pageHeight="1700" math="0" shadow="0">
      <root>
        <mxCell id="0" />
        <mxCell id="1" parent="0" />
        <mxCell id="335l0VnZli1X-sv9pP9R-2" value="&lt;div style=&quot;font-size: 19px;&quot;&gt;&lt;font style=&quot;font-size: 19px;&quot; color=&quot;#cc0000&quot;&gt;Processeur&lt;/font&gt;&lt;/div&gt;&lt;div style=&quot;font-size: 19px;&quot;&gt;&lt;font style=&quot;font-size: 19px;&quot; color=&quot;#cc0000&quot;&gt;STM32L476RG&lt;/font&gt;&lt;font style=&quot;font-size: 19px;&quot; color=&quot;#cc0000&quot;&gt;&lt;br&gt;&lt;/font&gt;&lt;/div&gt;" style="rounded=1;whiteSpace=wrap;html=1;strokeColor=#CC0000;" vertex="1" parent="1">
          <mxGeometry x="315" y="130" width="150" height="80" as="geometry" />
        </mxCell>
        <mxCell id="335l0VnZli1X-sv9pP9R-5" value="TOF.h" style="rounded=1;whiteSpace=wrap;html=1;" vertex="1" parent="1">
          <mxGeometry x="110" y="270" width="80" height="40" as="geometry" />
        </mxCell>
        <mxCell id="335l0VnZli1X-sv9pP9R-6" value="TOF.c" style="rounded=1;whiteSpace=wrap;html=1;" vertex="1" parent="1">
          <mxGeometry x="110" y="330" width="80" height="40" as="geometry" />
        </mxCell>
        <mxCell id="335l0VnZli1X-sv9pP9R-7" value="&lt;font color=&quot;#0000cc&quot;&gt;TOF&lt;/font&gt;" style="rounded=0;whiteSpace=wrap;html=1;strokeColor=#0000CC;" vertex="1" parent="1">
          <mxGeometry x="110" y="410" width="80" height="40" as="geometry" />
        </mxCell>
        <mxCell id="335l0VnZli1X-sv9pP9R-8" value="XL430.h" style="rounded=1;whiteSpace=wrap;html=1;" vertex="1" parent="1">
          <mxGeometry x="230" y="270" width="80" height="40" as="geometry" />
        </mxCell>
        <mxCell id="335l0VnZli1X-sv9pP9R-9" value="XL430.c" style="rounded=1;whiteSpace=wrap;html=1;" vertex="1" parent="1">
          <mxGeometry x="230" y="330" width="80" height="40" as="geometry" />
        </mxCell>
        <mxCell id="335l0VnZli1X-sv9pP9R-10" value="&lt;font color=&quot;#0000cc&quot;&gt;XL430 x6&lt;/font&gt;" style="rounded=0;whiteSpace=wrap;html=1;strokeColor=#0000CC;" vertex="1" parent="1">
          <mxGeometry x="230" y="410" width="80" height="40" as="geometry" />
        </mxCell>
        <mxCell id="335l0VnZli1X-sv9pP9R-11" value="Servo.h" style="rounded=1;whiteSpace=wrap;html=1;" vertex="1" parent="1">
          <mxGeometry x="350" y="270" width="80" height="40" as="geometry" />
        </mxCell>
        <mxCell id="335l0VnZli1X-sv9pP9R-12" value="Servo.c" style="rounded=1;whiteSpace=wrap;html=1;" vertex="1" parent="1">
          <mxGeometry x="350" y="330" width="80" height="40" as="geometry" />
        </mxCell>
        <mxCell id="335l0VnZli1X-sv9pP9R-13" value="&lt;font color=&quot;#0000cc&quot;&gt;Servos x6&lt;/font&gt;" style="rounded=0;whiteSpace=wrap;html=1;strokeColor=#0000CC;" vertex="1" parent="1">
          <mxGeometry x="350" y="410" width="80" height="40" as="geometry" />
        </mxCell>
        <mxCell id="335l0VnZli1X-sv9pP9R-14" value="Neopixel.h" style="rounded=1;whiteSpace=wrap;html=1;" vertex="1" parent="1">
          <mxGeometry x="470" y="270" width="80" height="40" as="geometry" />
        </mxCell>
        <mxCell id="335l0VnZli1X-sv9pP9R-15" value="Neopixel.c" style="rounded=1;whiteSpace=wrap;html=1;" vertex="1" parent="1">
          <mxGeometry x="470" y="330" width="80" height="40" as="geometry" />
        </mxCell>
        <mxCell id="335l0VnZli1X-sv9pP9R-16" value="&lt;div style=&quot;font-size: 11px;&quot;&gt;&lt;font style=&quot;font-size: 11px;&quot; color=&quot;#0000cc&quot;&gt;Ruban neopixel&lt;/font&gt;&lt;/div&gt;&lt;div style=&quot;font-size: 11px;&quot;&gt;&lt;font style=&quot;font-size: 11px;&quot; color=&quot;#0000cc&quot;&gt;+ yeux&lt;/font&gt;&lt;font style=&quot;font-size: 11px;&quot;&gt;&lt;br&gt;&lt;/font&gt;&lt;/div&gt;" style="rounded=0;whiteSpace=wrap;html=1;strokeColor=#0000CC;" vertex="1" parent="1">
          <mxGeometry x="470" y="410" width="80" height="40" as="geometry" />
        </mxCell>
        <mxCell id="335l0VnZli1X-sv9pP9R-17" value="MP3.h" style="rounded=1;whiteSpace=wrap;html=1;" vertex="1" parent="1">
          <mxGeometry x="590" y="270" width="80" height="40" as="geometry" />
        </mxCell>
        <mxCell id="335l0VnZli1X-sv9pP9R-18" value="MP3.c" style="rounded=1;whiteSpace=wrap;html=1;" vertex="1" parent="1">
          <mxGeometry x="590" y="330" width="80" height="40" as="geometry" />
        </mxCell>
        <mxCell id="335l0VnZli1X-sv9pP9R-19" value="&lt;div&gt;&lt;font color=&quot;#0000cc&quot;&gt;Module MP3&lt;/font&gt;&lt;/div&gt;&lt;div&gt;&lt;font color=&quot;#0000cc&quot;&gt;+ microSD&lt;/font&gt;&lt;br&gt;&lt;/div&gt;" style="rounded=0;whiteSpace=wrap;html=1;strokeColor=#0000CC;" vertex="1" parent="1">
          <mxGeometry x="590" y="410" width="80" height="40" as="geometry" />
        </mxCell>
        <mxCell id="335l0VnZli1X-sv9pP9R-21" value="" style="endArrow=classic;html=1;rounded=0;entryX=0.5;entryY=0;entryDx=0;entryDy=0;exitX=0.127;exitY=1;exitDx=0;exitDy=0;exitPerimeter=0;" edge="1" parent="1" source="335l0VnZli1X-sv9pP9R-2" target="335l0VnZli1X-sv9pP9R-5">
          <mxGeometry width="50" height="50" relative="1" as="geometry">
            <mxPoint x="460" y="320" as="sourcePoint" />
            <mxPoint x="510" y="270" as="targetPoint" />
          </mxGeometry>
        </mxCell>
        <mxCell id="335l0VnZli1X-sv9pP9R-22" value="" style="endArrow=classic;html=1;rounded=0;entryX=0.5;entryY=0;entryDx=0;entryDy=0;exitX=0.25;exitY=1;exitDx=0;exitDy=0;" edge="1" parent="1" source="335l0VnZli1X-sv9pP9R-2" target="335l0VnZli1X-sv9pP9R-8">
          <mxGeometry width="50" height="50" relative="1" as="geometry">
            <mxPoint x="350" y="220" as="sourcePoint" />
            <mxPoint x="510" y="270" as="targetPoint" />
          </mxGeometry>
        </mxCell>
        <mxCell id="335l0VnZli1X-sv9pP9R-23" value="" style="endArrow=classic;html=1;rounded=0;entryX=0.5;entryY=0;entryDx=0;entryDy=0;exitX=0.5;exitY=1;exitDx=0;exitDy=0;" edge="1" parent="1" source="335l0VnZli1X-sv9pP9R-2" target="335l0VnZli1X-sv9pP9R-11">
          <mxGeometry width="50" height="50" relative="1" as="geometry">
            <mxPoint x="460" y="320" as="sourcePoint" />
            <mxPoint x="510" y="270" as="targetPoint" />
          </mxGeometry>
        </mxCell>
        <mxCell id="335l0VnZli1X-sv9pP9R-24" value="" style="endArrow=classic;html=1;rounded=0;entryX=0.5;entryY=0;entryDx=0;entryDy=0;exitX=0.75;exitY=1;exitDx=0;exitDy=0;" edge="1" parent="1" source="335l0VnZli1X-sv9pP9R-2" target="335l0VnZli1X-sv9pP9R-14">
          <mxGeometry width="50" height="50" relative="1" as="geometry">
            <mxPoint x="460" y="320" as="sourcePoint" />
            <mxPoint x="510" y="270" as="targetPoint" />
          </mxGeometry>
        </mxCell>
        <mxCell id="335l0VnZli1X-sv9pP9R-25" value="" style="endArrow=classic;html=1;rounded=0;entryX=0.5;entryY=0;entryDx=0;entryDy=0;exitX=0.895;exitY=1.007;exitDx=0;exitDy=0;exitPerimeter=0;" edge="1" parent="1" source="335l0VnZli1X-sv9pP9R-2" target="335l0VnZli1X-sv9pP9R-17">
          <mxGeometry width="50" height="50" relative="1" as="geometry">
            <mxPoint x="460" y="320" as="sourcePoint" />
            <mxPoint x="510" y="270" as="targetPoint" />
          </mxGeometry>
        </mxCell>
        <mxCell id="335l0VnZli1X-sv9pP9R-26" value="" style="endArrow=classic;html=1;rounded=0;entryX=0.5;entryY=0;entryDx=0;entryDy=0;exitX=0.5;exitY=1;exitDx=0;exitDy=0;" edge="1" parent="1" source="335l0VnZli1X-sv9pP9R-5" target="335l0VnZli1X-sv9pP9R-6">
          <mxGeometry width="50" height="50" relative="1" as="geometry">
            <mxPoint x="410" y="340" as="sourcePoint" />
            <mxPoint x="460" y="290" as="targetPoint" />
          </mxGeometry>
        </mxCell>
        <mxCell id="335l0VnZli1X-sv9pP9R-27" value="" style="endArrow=classic;html=1;rounded=0;entryX=0.5;entryY=0;entryDx=0;entryDy=0;exitX=0.5;exitY=1;exitDx=0;exitDy=0;" edge="1" parent="1">
          <mxGeometry width="50" height="50" relative="1" as="geometry">
            <mxPoint x="269.84000000000003" y="310" as="sourcePoint" />
            <mxPoint x="269.84000000000003" y="330" as="targetPoint" />
          </mxGeometry>
        </mxCell>
        <mxCell id="335l0VnZli1X-sv9pP9R-28" value="" style="endArrow=classic;html=1;rounded=0;entryX=0.5;entryY=0;entryDx=0;entryDy=0;exitX=0.5;exitY=1;exitDx=0;exitDy=0;" edge="1" parent="1">
          <mxGeometry width="50" height="50" relative="1" as="geometry">
            <mxPoint x="389.84000000000003" y="310" as="sourcePoint" />
            <mxPoint x="389.84000000000003" y="330" as="targetPoint" />
          </mxGeometry>
        </mxCell>
        <mxCell id="335l0VnZli1X-sv9pP9R-29" value="" style="endArrow=classic;html=1;rounded=0;entryX=0.5;entryY=0;entryDx=0;entryDy=0;exitX=0.5;exitY=1;exitDx=0;exitDy=0;" edge="1" parent="1">
          <mxGeometry width="50" height="50" relative="1" as="geometry">
            <mxPoint x="509.84" y="310" as="sourcePoint" />
            <mxPoint x="509.84" y="330" as="targetPoint" />
          </mxGeometry>
        </mxCell>
        <mxCell id="335l0VnZli1X-sv9pP9R-30" value="" style="endArrow=classic;html=1;rounded=0;entryX=0.5;entryY=0;entryDx=0;entryDy=0;exitX=0.5;exitY=1;exitDx=0;exitDy=0;" edge="1" parent="1">
          <mxGeometry width="50" height="50" relative="1" as="geometry">
            <mxPoint x="629.8399999999999" y="310" as="sourcePoint" />
            <mxPoint x="629.8399999999999" y="330" as="targetPoint" />
          </mxGeometry>
        </mxCell>
        <mxCell id="335l0VnZli1X-sv9pP9R-31" value="" style="endArrow=classic;html=1;rounded=0;entryX=0.5;entryY=0;entryDx=0;entryDy=0;exitX=0.5;exitY=1;exitDx=0;exitDy=0;strokeColor=#0000CC;" edge="1" parent="1" source="335l0VnZli1X-sv9pP9R-6">
          <mxGeometry width="50" height="50" relative="1" as="geometry">
            <mxPoint x="149.84" y="390" as="sourcePoint" />
            <mxPoint x="149.84" y="410" as="targetPoint" />
          </mxGeometry>
        </mxCell>
        <mxCell id="335l0VnZli1X-sv9pP9R-32" value="" style="endArrow=classic;html=1;rounded=0;entryX=0.5;entryY=0;entryDx=0;entryDy=0;exitX=0.5;exitY=1;exitDx=0;exitDy=0;strokeColor=#0000CC;" edge="1" parent="1">
          <mxGeometry width="50" height="50" relative="1" as="geometry">
            <mxPoint x="270" y="370" as="sourcePoint" />
            <mxPoint x="269.84000000000003" y="410" as="targetPoint" />
          </mxGeometry>
        </mxCell>
        <mxCell id="335l0VnZli1X-sv9pP9R-33" value="" style="endArrow=classic;html=1;rounded=0;entryX=0.5;entryY=0;entryDx=0;entryDy=0;exitX=0.5;exitY=1;exitDx=0;exitDy=0;strokeColor=#0000CC;" edge="1" parent="1">
          <mxGeometry width="50" height="50" relative="1" as="geometry">
            <mxPoint x="390" y="370" as="sourcePoint" />
            <mxPoint x="389.84000000000003" y="410" as="targetPoint" />
          </mxGeometry>
        </mxCell>
        <mxCell id="335l0VnZli1X-sv9pP9R-34" value="" style="endArrow=classic;html=1;rounded=0;entryX=0.5;entryY=0;entryDx=0;entryDy=0;exitX=0.5;exitY=1;exitDx=0;exitDy=0;strokeColor=#0000CC;" edge="1" parent="1">
          <mxGeometry width="50" height="50" relative="1" as="geometry">
            <mxPoint x="510" y="370" as="sourcePoint" />
            <mxPoint x="509.84000000000003" y="410" as="targetPoint" />
          </mxGeometry>
        </mxCell>
        <mxCell id="335l0VnZli1X-sv9pP9R-35" value="" style="endArrow=classic;html=1;rounded=0;entryX=0.5;entryY=0;entryDx=0;entryDy=0;exitX=0.5;exitY=1;exitDx=0;exitDy=0;strokeColor=#0000CC;" edge="1" parent="1">
          <mxGeometry width="50" height="50" relative="1" as="geometry">
            <mxPoint x="630" y="370" as="sourcePoint" />
            <mxPoint x="629.84" y="410" as="targetPoint" />
          </mxGeometry>
        </mxCell>
        <mxCell id="335l0VnZli1X-sv9pP9R-36" value="&lt;font color=&quot;#0000cc&quot;&gt;I²C&lt;/font&gt;" style="text;html=1;align=center;verticalAlign=middle;whiteSpace=wrap;rounded=0;" vertex="1" parent="1">
          <mxGeometry x="144" y="376" width="40" height="20" as="geometry" />
        </mxCell>
        <mxCell id="335l0VnZli1X-sv9pP9R-37" value="&lt;font color=&quot;#0000cc&quot;&gt;USART&lt;/font&gt;" style="text;html=1;align=center;verticalAlign=middle;whiteSpace=wrap;rounded=0;" vertex="1" parent="1">
          <mxGeometry x="275" y="376" width="40" height="20" as="geometry" />
        </mxCell>
        <mxCell id="335l0VnZli1X-sv9pP9R-38" value="&lt;font color=&quot;#0000cc&quot;&gt;PWM x6&lt;/font&gt;" style="text;html=1;align=center;verticalAlign=middle;whiteSpace=wrap;rounded=0;" vertex="1" parent="1">
          <mxGeometry x="392" y="376" width="48" height="20" as="geometry" />
        </mxCell>
        <mxCell id="335l0VnZli1X-sv9pP9R-40" value="&lt;font color=&quot;#0000cc&quot;&gt;PWM&lt;/font&gt;" style="text;html=1;align=center;verticalAlign=middle;whiteSpace=wrap;rounded=0;" vertex="1" parent="1">
          <mxGeometry x="504" y="376" width="48" height="20" as="geometry" />
        </mxCell>
        <mxCell id="335l0VnZli1X-sv9pP9R-41" value="&lt;font color=&quot;#0000cc&quot;&gt;USART&lt;/font&gt;" style="text;html=1;align=center;verticalAlign=middle;whiteSpace=wrap;rounded=0;" vertex="1" parent="1">
          <mxGeometry x="632" y="376" width="48" height="20" as="geometry" />
        </mxCell>
      </root>
    </mxGraphModel>
  </diagram>
</mxfile>
